<svg width="17" height="18" viewBox="0 0 17 18" fill="none" xmlns="http://www.w3.org/2000/svg">
<path d="M14.1658 3.34779H12.4405V2.50152C12.4405 1.12218 11.3183 0 9.93889 0H6.49698C5.11764 0 3.99546 1.12218 3.99546 2.50152V3.34779H2.27015C1.01639 3.34779 0 4.36418 0 5.61793V8.47301H16.4359V5.61793C16.4359 4.36413 15.4195 3.34779 14.1658 3.34779ZM10.6243 3.34779H5.81162V2.50152C5.81162 2.12359 6.11905 1.81612 6.49703 1.81612H9.93898C10.3169 1.81612 10.6244 2.12359 10.6244 2.50152L10.6243 3.34779Z" fill="#D6E5F3"/>
<path d="M14.196 11.0934C14.196 11.3851 13.9596 11.6216 13.6679 11.6216H11.788C11.4964 11.6216 11.26 11.3851 11.26 11.0934V10.1535H5.17597V11.0934C5.17597 11.3851 4.93955 11.6216 4.64789 11.6216H2.76793C2.47635 11.6216 2.23994 11.3851 2.23994 11.0934V10.1535H3.05176e-05V15.1298C3.05176e-05 16.3836 1.01642 17.4 2.27018 17.4H14.1658C15.4195 17.4 16.4359 16.3836 16.4359 15.1298V10.1535H14.196V11.0934Z" fill="#D6E5F3"/>
</svg>
