<svg width="153" height="192" viewBox="0 0 153 192" fill="none" xmlns="http://www.w3.org/2000/svg">
<path d="M72.9874 72.9873L72.9873 1.06346e-06L97.3165 0L97.3165 72.9873H72.9874Z" fill="black"/>
<path d="M0 69.9489C0 128.337 48.6582 145.975 72.9874 145.975V121.646C56.7679 121.266 24.3291 108.266 24.3291 69.9489C24.3291 31.6316 56.7679 24.7125 72.9874 24.3324V0.00395472C48.6582 -0.249467 0 11.5606 0 69.9489Z" fill="black"/>
<path d="M103.399 1.06346e-06H127.728V24.3291H103.399V1.06346e-06Z" fill="black"/>
<path d="M127.728 1.06346e-06H152.057V145.975H127.728V1.06346e-06Z" fill="black"/>
<path d="M31.1169 172.187H24.7311C24.6145 171.361 24.3764 170.627 24.0167 169.985C23.6571 169.334 23.1954 168.78 22.6317 168.323C22.068 167.866 21.4168 167.516 20.6781 167.273C19.9491 167.03 19.157 166.909 18.3016 166.909C16.7562 166.909 15.4101 167.293 14.2632 168.061C13.1163 168.819 12.2269 169.927 11.5952 171.385C10.9634 172.833 10.6475 174.592 10.6475 176.663C10.6475 178.791 10.9634 180.58 11.5952 182.028C12.2366 183.476 13.1308 184.569 14.2778 185.308C15.4247 186.047 16.7514 186.416 18.2579 186.416C19.1035 186.416 19.8859 186.304 20.6052 186.081C21.3341 185.857 21.9805 185.532 22.5442 185.104C23.108 184.667 23.5745 184.137 23.9438 183.515C24.3229 182.893 24.5853 182.183 24.7311 181.386L31.1169 181.415C30.9516 182.786 30.5386 184.108 29.8776 185.381C29.2264 186.645 28.3468 187.777 27.2388 188.778C26.1405 189.769 24.8283 190.557 23.3024 191.14C21.7861 191.713 20.0706 192 18.1559 192C15.4927 192 13.1114 191.397 11.012 190.192C8.92228 188.987 7.26995 187.242 6.05501 184.958C4.84979 182.674 4.24717 179.909 4.24717 176.663C4.24717 173.406 4.85951 170.636 6.08417 168.352C7.30883 166.068 8.97088 164.328 11.0703 163.133C13.1697 161.928 15.5316 161.325 18.1559 161.325C19.8859 161.325 21.4897 161.568 22.967 162.054C24.4541 162.54 25.7711 163.25 26.918 164.183C28.0649 165.106 28.998 166.238 29.7173 167.58C30.4462 168.921 30.9128 170.457 31.1169 172.187Z" fill="black"/>
<path d="M50.4928 191.592H43.728L54.0356 161.733H62.1708L72.4639 191.592H65.699L58.2198 168.556H57.9866L50.4928 191.592ZM50.07 179.855H66.0489V184.783H50.07V179.855Z" fill="black"/>
<path d="M88.4319 182.013C87.4696 182.013 86.6435 181.673 85.9534 180.993C85.273 180.303 84.9328 179.476 84.9328 178.514C84.9328 177.562 85.273 176.745 85.9534 176.065C86.6435 175.384 87.4696 175.044 88.4319 175.044C89.3649 175.044 90.1814 175.384 90.8812 176.065C91.581 176.745 91.9309 177.562 91.9309 178.514C91.9309 179.156 91.7657 179.744 91.4352 180.278C91.1144 180.803 90.6917 181.226 90.1668 181.547C89.6419 181.858 89.0636 182.013 88.4319 182.013Z" fill="black"/>
<path d="M107.41 191.592V161.733H113.723V186.387H126.524V191.592H107.41Z" fill="black"/>
<path d="M147.281 161.733V191.592H140.968V161.733H147.281Z" fill="black"/>
<path d="M72.9874 103.399V79.0696H97.3165V103.399H72.9874Z" fill="black"/>
</svg>
